<svg width="300" height="290" viewBox="0 0 300 290" fill="none" xmlns="http://www.w3.org/2000/svg">
<g clip-path="url(#clip0_5101_58484)">
<rect width="300" height="290" rx="20" fill="#DFF1D7" fill-opacity="0.5"/>
<g filter="url(#filter0_d_5101_58484)">
<path d="M322.058 148.452C327.806 142.704 327.806 133.385 322.058 127.637C316.31 121.889 306.991 121.889 301.243 127.637L272.707 156.173L268.558 152.024C262.81 146.276 253.491 146.276 247.742 152.024C241.994 157.772 241.994 167.091 247.742 172.839L262.299 187.396C268.047 193.144 277.367 193.144 283.115 187.396L322.058 148.452Z" fill="#005E2B" fill-opacity="0.03" shape-rendering="crispEdges"/>
<path fill-rule="evenodd" clip-rule="evenodd" d="M304.271 13.2115C290.217 7.58055 274.533 7.58056 260.479 13.2115L207.1 34.5976C206.934 34.6641 206.769 34.7336 206.606 34.8061L183.828 44.9102C163.852 53.7718 149.904 73.283 149.906 96.0036C149.909 124.959 151.996 173.968 165.609 207.594C174.66 229.953 190.962 249.333 207.531 264.819C224.218 280.417 241.996 292.822 255.073 301.079C271.83 311.661 292.92 311.661 309.677 301.079C322.754 292.822 340.532 280.417 357.219 264.819C373.788 249.333 390.09 229.953 399.141 207.594C412.754 173.968 414.841 124.959 414.844 96.0036C414.846 73.283 400.898 53.7718 380.922 44.9102L358.144 34.8061C357.981 34.7336 357.816 34.6641 357.65 34.5976L304.271 13.2115ZM271.427 40.5374C278.454 37.7219 286.296 37.7219 293.323 40.5374L346.453 61.8237L368.985 71.819C379.124 76.3164 385.407 85.7768 385.406 96.0011C385.404 125.156 383.074 168.834 371.855 196.548C365.055 213.345 352.123 229.288 337.118 243.314C322.231 257.228 306.095 268.526 293.961 276.189C286.804 280.708 277.946 280.708 270.789 276.189C258.655 268.526 242.519 257.228 227.632 243.314C212.627 229.288 199.695 213.345 192.895 196.548C181.676 168.834 179.346 125.156 179.344 96.0011C179.343 85.7768 185.626 76.3164 195.765 71.819L218.297 61.8237L271.427 40.5374Z" fill="#005E2B" fill-opacity="0.03" shape-rendering="crispEdges"/>
</g>
<g filter="url(#filter1_d_5101_58484)">
<path d="M162.973 116.04C164.925 114.088 164.925 110.922 162.973 108.969C161.02 107.017 157.854 107.017 155.902 108.969L146.208 118.663L144.798 117.254C142.846 115.301 139.68 115.301 137.727 117.254C135.775 119.206 135.775 122.372 137.727 124.325L142.672 129.27C144.625 131.222 147.791 131.222 149.743 129.27L162.973 116.04Z" fill="#005E2B"/>
<path fill-rule="evenodd" clip-rule="evenodd" d="M156.93 70.0987C152.156 68.1859 146.828 68.1859 142.054 70.0987L123.921 77.3636C123.865 77.3862 123.809 77.4098 123.753 77.4345L116.016 80.8669C109.229 83.8771 104.492 90.5051 104.492 98.2234C104.493 108.06 105.202 124.708 109.826 136.131C112.901 143.727 118.439 150.31 124.067 155.571C129.736 160.869 135.775 165.083 140.217 167.888C145.91 171.483 153.074 171.483 158.767 167.888C163.209 165.083 169.248 160.869 174.917 155.571C180.545 150.31 186.083 143.727 189.158 136.131C193.782 124.708 194.491 108.06 194.492 98.2234C194.493 90.5051 189.755 83.8771 182.969 80.8669L175.231 77.4345C175.176 77.4098 175.12 77.3862 175.063 77.3636L156.93 70.0987ZM145.773 79.3814C148.16 78.425 150.824 78.425 153.211 79.3814L171.26 86.6124L178.914 90.0078C182.358 91.5356 184.492 94.7493 184.492 98.2226C184.491 108.127 183.7 122.964 179.889 132.379C177.579 138.085 173.186 143.5 168.088 148.265C163.031 152.992 157.55 156.83 153.428 159.433C150.997 160.968 147.988 160.968 145.557 159.433C141.434 156.83 135.953 152.992 130.896 148.265C125.799 143.5 121.406 138.085 119.096 132.379C115.285 122.964 114.493 108.127 114.492 98.2226C114.492 94.7493 116.626 91.5356 120.07 90.0078L127.725 86.6124L145.773 79.3814Z" fill="#005E2B"/>
</g>
<path d="M69.3608 219.5V210.773H70.9418V214.783H71.0483L74.4531 210.773H76.3835L73.0085 214.689L76.4134 219.5H74.5128L71.9091 215.759L70.9418 216.901V219.5H69.3608ZM76.8853 210.773H78.6708L80.8058 214.634H80.891L83.0259 210.773H84.8114L81.6367 216.244V219.5H80.06V216.244L76.8853 210.773ZM92.9091 213.717H91.3153C91.2699 213.456 91.1861 213.224 91.0639 213.023C90.9418 212.818 90.7898 212.645 90.608 212.503C90.4261 212.361 90.2188 212.254 89.9858 212.183C89.7557 212.109 89.5071 212.072 89.2401 212.072C88.7656 212.072 88.3452 212.192 87.9787 212.43C87.6122 212.666 87.3253 213.013 87.1179 213.47C86.9105 213.925 86.8068 214.48 86.8068 215.136C86.8068 215.804 86.9105 216.366 87.1179 216.824C87.3281 217.278 87.6151 217.622 87.9787 217.855C88.3452 218.085 88.7642 218.2 89.2358 218.2C89.4972 218.2 89.7415 218.166 89.9688 218.098C90.1989 218.027 90.4048 217.923 90.5866 217.787C90.7713 217.651 90.9261 217.483 91.0511 217.284C91.179 217.085 91.267 216.858 91.3153 216.602L92.9091 216.611C92.8494 217.026 92.7202 217.415 92.5213 217.778C92.3253 218.142 92.0682 218.463 91.75 218.741C91.4318 219.017 91.0597 219.233 90.6335 219.389C90.2074 219.543 89.7344 219.619 89.2145 219.619C88.4474 219.619 87.7628 219.442 87.1605 219.087C86.5582 218.732 86.0838 218.219 85.7372 217.548C85.3906 216.878 85.2173 216.074 85.2173 215.136C85.2173 214.196 85.392 213.392 85.7415 212.724C86.0909 212.054 86.5668 211.541 87.169 211.186C87.7713 210.831 88.4531 210.653 89.2145 210.653C89.7003 210.653 90.152 210.722 90.5696 210.858C90.9872 210.994 91.3594 211.195 91.6861 211.459C92.0128 211.72 92.2813 212.041 92.4915 212.422C92.7045 212.8 92.8438 213.232 92.9091 213.717ZM98.5011 210.773L100.772 217.642H100.862L103.129 210.773H104.868L101.791 219.5H99.8391L96.7667 210.773H98.5011ZM108.143 219.628C107.487 219.628 106.92 219.491 106.443 219.219C105.969 218.943 105.604 218.554 105.348 218.051C105.092 217.545 104.964 216.95 104.964 216.266C104.964 215.592 105.092 215.001 105.348 214.493C105.607 213.982 105.967 213.584 106.43 213.3C106.893 213.013 107.438 212.869 108.062 212.869C108.466 212.869 108.847 212.935 109.205 213.065C109.565 213.193 109.884 213.392 110.159 213.662C110.438 213.932 110.656 214.276 110.815 214.693C110.974 215.108 111.054 215.602 111.054 216.176V216.649H105.689V215.609H109.575C109.572 215.314 109.509 215.051 109.384 214.821C109.259 214.588 109.084 214.405 108.859 214.271C108.638 214.138 108.379 214.071 108.084 214.071C107.768 214.071 107.491 214.148 107.253 214.301C107.014 214.452 106.828 214.651 106.695 214.898C106.564 215.142 106.497 215.411 106.494 215.703V216.611C106.494 216.991 106.564 217.318 106.703 217.591C106.842 217.861 107.037 218.068 107.287 218.213C107.537 218.355 107.83 218.426 108.165 218.426C108.389 218.426 108.592 218.395 108.774 218.332C108.956 218.267 109.114 218.172 109.247 218.047C109.381 217.922 109.482 217.767 109.55 217.582L110.99 217.744C110.899 218.125 110.726 218.457 110.47 218.741C110.217 219.023 109.893 219.241 109.499 219.398C109.104 219.551 108.652 219.628 108.143 219.628ZM112.359 219.5V212.955H113.855V214.045H113.923C114.042 213.668 114.247 213.376 114.537 213.172C114.829 212.964 115.163 212.861 115.538 212.861C115.623 212.861 115.718 212.865 115.824 212.874C115.931 212.879 116.021 212.889 116.092 212.903V214.322C116.027 214.3 115.923 214.28 115.781 214.263C115.642 214.243 115.507 214.233 115.376 214.233C115.095 214.233 114.842 214.294 114.618 214.416C114.396 214.536 114.221 214.702 114.093 214.915C113.966 215.128 113.902 215.374 113.902 215.652V219.5H112.359ZM117.117 219.5V212.955H118.659V219.5H117.117ZM117.892 212.026C117.648 212.026 117.438 211.945 117.262 211.783C117.086 211.618 116.998 211.42 116.998 211.19C116.998 210.957 117.086 210.76 117.262 210.598C117.438 210.433 117.648 210.351 117.892 210.351C118.14 210.351 118.35 210.433 118.523 210.598C118.699 210.76 118.787 210.957 118.787 211.19C118.787 211.42 118.699 211.618 118.523 211.783C118.35 211.945 118.14 212.026 117.892 212.026ZM123.561 212.955V214.148H119.692V212.955H123.561ZM120.659 219.5V212.337C120.659 211.896 120.75 211.53 120.932 211.237C121.116 210.945 121.364 210.726 121.673 210.581C121.983 210.436 122.327 210.364 122.705 210.364C122.972 210.364 123.209 210.385 123.416 210.428C123.624 210.47 123.777 210.509 123.876 210.543L123.57 211.736C123.504 211.716 123.422 211.696 123.322 211.676C123.223 211.653 123.112 211.642 122.99 211.642C122.703 211.642 122.5 211.712 122.381 211.851C122.264 211.987 122.206 212.183 122.206 212.439V219.5H120.659ZM124.769 219.5V212.955H126.312V219.5H124.769ZM125.545 212.026C125.3 212.026 125.09 211.945 124.914 211.783C124.738 211.618 124.65 211.42 124.65 211.19C124.65 210.957 124.738 210.76 124.914 210.598C125.09 210.433 125.3 210.351 125.545 210.351C125.792 210.351 126.002 210.433 126.175 210.598C126.352 210.76 126.44 210.957 126.44 211.19C126.44 211.42 126.352 211.618 126.175 211.783C126.002 211.945 125.792 212.026 125.545 212.026ZM130.753 219.628C130.1 219.628 129.539 219.484 129.07 219.197C128.604 218.911 128.245 218.514 127.992 218.009C127.742 217.5 127.617 216.915 127.617 216.253C127.617 215.588 127.745 215.001 128 214.493C128.256 213.982 128.617 213.584 129.083 213.3C129.551 213.013 130.105 212.869 130.745 212.869C131.276 212.869 131.746 212.967 132.155 213.163C132.567 213.357 132.895 213.631 133.14 213.986C133.384 214.338 133.523 214.75 133.557 215.222H132.083C132.023 214.906 131.881 214.643 131.657 214.433C131.435 214.22 131.138 214.114 130.766 214.114C130.451 214.114 130.174 214.199 129.935 214.369C129.696 214.537 129.51 214.778 129.377 215.094C129.246 215.409 129.181 215.787 129.181 216.227C129.181 216.673 129.246 217.057 129.377 217.378C129.507 217.696 129.691 217.942 129.926 218.115C130.165 218.286 130.445 218.371 130.766 218.371C130.993 218.371 131.196 218.328 131.375 218.243C131.557 218.155 131.709 218.028 131.831 217.864C131.953 217.699 132.037 217.499 132.083 217.263H133.557C133.52 217.726 133.384 218.136 133.148 218.494C132.912 218.849 132.591 219.128 132.185 219.33C131.779 219.528 131.301 219.628 130.753 219.628ZM136.707 219.632C136.293 219.632 135.919 219.558 135.587 219.411C135.257 219.26 134.996 219.038 134.803 218.746C134.612 218.453 134.517 218.092 134.517 217.663C134.517 217.294 134.585 216.989 134.722 216.747C134.858 216.506 135.044 216.312 135.28 216.168C135.516 216.023 135.781 215.913 136.077 215.839C136.375 215.763 136.683 215.707 137.001 215.673C137.385 215.634 137.696 215.598 137.935 215.567C138.173 215.533 138.347 215.482 138.455 215.413C138.565 215.342 138.621 215.233 138.621 215.085V215.06C138.621 214.739 138.526 214.49 138.335 214.314C138.145 214.138 137.871 214.05 137.513 214.05C137.135 214.05 136.835 214.132 136.614 214.297C136.395 214.462 136.247 214.656 136.17 214.881L134.73 214.676C134.844 214.278 135.031 213.946 135.293 213.679C135.554 213.409 135.874 213.207 136.251 213.074C136.629 212.938 137.047 212.869 137.504 212.869C137.82 212.869 138.134 212.906 138.446 212.98C138.759 213.054 139.044 213.176 139.303 213.347C139.561 213.514 139.768 213.743 139.925 214.033C140.084 214.322 140.163 214.685 140.163 215.119V219.5H138.68V218.601H138.629C138.536 218.783 138.403 218.953 138.233 219.112C138.065 219.268 137.854 219.395 137.598 219.491C137.345 219.585 137.048 219.632 136.707 219.632ZM137.108 218.499C137.418 218.499 137.686 218.437 137.913 218.315C138.141 218.19 138.315 218.026 138.438 217.821C138.562 217.616 138.625 217.393 138.625 217.152V216.381C138.577 216.42 138.494 216.457 138.378 216.491C138.264 216.526 138.136 216.555 137.994 216.581C137.852 216.607 137.712 216.629 137.572 216.649C137.433 216.669 137.313 216.686 137.21 216.7C136.98 216.732 136.774 216.783 136.592 216.854C136.411 216.925 136.267 217.024 136.162 217.152C136.057 217.277 136.004 217.439 136.004 217.638C136.004 217.922 136.108 218.136 136.315 218.281C136.523 218.426 136.787 218.499 137.108 218.499ZM144.983 212.955V214.148H141.22V212.955H144.983ZM142.149 211.386H143.692V217.531C143.692 217.739 143.723 217.898 143.786 218.009C143.851 218.116 143.936 218.19 144.041 218.23C144.146 218.27 144.263 218.29 144.391 218.29C144.487 218.29 144.575 218.283 144.655 218.268C144.737 218.254 144.8 218.241 144.842 218.23L145.102 219.436C145.02 219.464 144.902 219.496 144.749 219.53C144.598 219.564 144.413 219.584 144.195 219.589C143.808 219.601 143.46 219.543 143.151 219.415C142.841 219.284 142.595 219.082 142.413 218.81C142.234 218.537 142.146 218.196 142.149 217.787V211.386ZM146.273 219.5V212.955H147.816V219.5H146.273ZM147.049 212.026C146.804 212.026 146.594 211.945 146.418 211.783C146.242 211.618 146.154 211.42 146.154 211.19C146.154 210.957 146.242 210.76 146.418 210.598C146.594 210.433 146.804 210.351 147.049 210.351C147.296 210.351 147.506 210.433 147.679 210.598C147.855 210.76 147.944 210.957 147.944 211.19C147.944 211.42 147.855 211.618 147.679 211.783C147.506 211.945 147.296 212.026 147.049 212.026ZM152.257 219.628C151.618 219.628 151.064 219.487 150.595 219.206C150.126 218.925 149.763 218.531 149.504 218.026C149.249 217.52 149.121 216.929 149.121 216.253C149.121 215.577 149.249 214.984 149.504 214.476C149.763 213.967 150.126 213.572 150.595 213.291C151.064 213.01 151.618 212.869 152.257 212.869C152.896 212.869 153.45 213.01 153.919 213.291C154.388 213.572 154.75 213.967 155.006 214.476C155.264 214.984 155.393 215.577 155.393 216.253C155.393 216.929 155.264 217.52 155.006 218.026C154.75 218.531 154.388 218.925 153.919 219.206C153.45 219.487 152.896 219.628 152.257 219.628ZM152.266 218.392C152.612 218.392 152.902 218.297 153.135 218.107C153.368 217.913 153.541 217.655 153.655 217.331C153.771 217.007 153.83 216.646 153.83 216.249C153.83 215.848 153.771 215.486 153.655 215.162C153.541 214.835 153.368 214.575 153.135 214.382C152.902 214.189 152.612 214.092 152.266 214.092C151.911 214.092 151.615 214.189 151.379 214.382C151.146 214.575 150.972 214.835 150.855 215.162C150.741 215.486 150.685 215.848 150.685 216.249C150.685 216.646 150.741 217.007 150.855 217.331C150.972 217.655 151.146 217.913 151.379 218.107C151.615 218.297 151.911 218.392 152.266 218.392ZM158.245 215.665V219.5H156.703V212.955H158.177V214.067H158.254C158.404 213.7 158.645 213.409 158.974 213.193C159.306 212.977 159.717 212.869 160.206 212.869C160.657 212.869 161.051 212.966 161.386 213.159C161.724 213.352 161.985 213.632 162.17 213.999C162.358 214.365 162.45 214.81 162.447 215.332V219.5H160.904V215.571C160.904 215.134 160.791 214.791 160.564 214.544C160.339 214.297 160.028 214.173 159.63 214.173C159.36 214.173 159.12 214.233 158.91 214.352C158.703 214.469 158.539 214.638 158.42 214.859C158.304 215.081 158.245 215.349 158.245 215.665ZM174.53 213.717H172.936C172.891 213.456 172.807 213.224 172.685 213.023C172.563 212.818 172.411 212.645 172.229 212.503C172.047 212.361 171.84 212.254 171.607 212.183C171.377 212.109 171.128 212.072 170.861 212.072C170.387 212.072 169.966 212.192 169.6 212.43C169.233 212.666 168.946 213.013 168.739 213.47C168.532 213.925 168.428 214.48 168.428 215.136C168.428 215.804 168.532 216.366 168.739 216.824C168.949 217.278 169.236 217.622 169.6 217.855C169.966 218.085 170.385 218.2 170.857 218.2C171.118 218.2 171.363 218.166 171.59 218.098C171.82 218.027 172.026 217.923 172.208 217.787C172.392 217.651 172.547 217.483 172.672 217.284C172.8 217.085 172.888 216.858 172.936 216.602L174.53 216.611C174.471 217.026 174.341 217.415 174.142 217.778C173.946 218.142 173.689 218.463 173.371 218.741C173.053 219.017 172.681 219.233 172.255 219.389C171.828 219.543 171.355 219.619 170.836 219.619C170.069 219.619 169.384 219.442 168.782 219.087C168.179 218.732 167.705 218.219 167.358 217.548C167.012 216.878 166.838 216.074 166.838 215.136C166.838 214.196 167.013 213.392 167.363 212.724C167.712 212.054 168.188 211.541 168.79 211.186C169.392 210.831 170.074 210.653 170.836 210.653C171.321 210.653 171.773 210.722 172.191 210.858C172.608 210.994 172.98 211.195 173.307 211.459C173.634 211.72 173.902 212.041 174.113 212.422C174.326 212.8 174.465 213.232 174.53 213.717ZM178.765 219.628C178.126 219.628 177.572 219.487 177.103 219.206C176.634 218.925 176.271 218.531 176.012 218.026C175.756 217.52 175.629 216.929 175.629 216.253C175.629 215.577 175.756 214.984 176.012 214.476C176.271 213.967 176.634 213.572 177.103 213.291C177.572 213.01 178.126 212.869 178.765 212.869C179.404 212.869 179.958 213.01 180.427 213.291C180.896 213.572 181.258 213.967 181.513 214.476C181.772 214.984 181.901 215.577 181.901 216.253C181.901 216.929 181.772 217.52 181.513 218.026C181.258 218.531 180.896 218.925 180.427 219.206C179.958 219.487 179.404 219.628 178.765 219.628ZM178.773 218.392C179.12 218.392 179.41 218.297 179.643 218.107C179.876 217.913 180.049 217.655 180.163 217.331C180.279 217.007 180.337 216.646 180.337 216.249C180.337 215.848 180.279 215.486 180.163 215.162C180.049 214.835 179.876 214.575 179.643 214.382C179.41 214.189 179.12 214.092 178.773 214.092C178.418 214.092 178.123 214.189 177.887 214.382C177.654 214.575 177.479 214.835 177.363 215.162C177.249 215.486 177.192 215.848 177.192 216.249C177.192 216.646 177.249 217.007 177.363 217.331C177.479 217.655 177.654 217.913 177.887 218.107C178.123 218.297 178.418 218.392 178.773 218.392ZM183.211 219.5V212.955H184.685V214.067H184.762C184.898 213.692 185.124 213.399 185.439 213.189C185.755 212.976 186.131 212.869 186.569 212.869C187.012 212.869 187.385 212.977 187.689 213.193C187.996 213.406 188.212 213.697 188.337 214.067H188.405C188.55 213.703 188.794 213.413 189.138 213.197C189.485 212.979 189.895 212.869 190.37 212.869C190.972 212.869 191.463 213.06 191.844 213.44C192.225 213.821 192.415 214.376 192.415 215.107V219.5H190.868V215.345C190.868 214.939 190.76 214.642 190.544 214.455C190.328 214.264 190.064 214.169 189.752 214.169C189.38 214.169 189.088 214.286 188.878 214.518C188.671 214.749 188.567 215.048 188.567 215.418V219.5H187.054V215.281C187.054 214.943 186.952 214.673 186.748 214.472C186.546 214.27 186.282 214.169 185.955 214.169C185.733 214.169 185.532 214.226 185.35 214.339C185.168 214.45 185.023 214.608 184.915 214.812C184.807 215.014 184.753 215.25 184.753 215.52V219.5H183.211ZM193.98 221.955V212.955H195.497V214.037H195.587C195.666 213.878 195.778 213.709 195.923 213.53C196.068 213.348 196.264 213.193 196.511 213.065C196.759 212.935 197.074 212.869 197.457 212.869C197.963 212.869 198.419 212.999 198.825 213.257C199.234 213.513 199.558 213.892 199.797 214.395C200.038 214.895 200.159 215.509 200.159 216.236C200.159 216.955 200.041 217.565 199.805 218.068C199.57 218.571 199.249 218.955 198.842 219.219C198.436 219.483 197.976 219.615 197.462 219.615C197.087 219.615 196.776 219.553 196.528 219.428C196.281 219.303 196.082 219.152 195.932 218.976C195.784 218.797 195.669 218.628 195.587 218.469H195.523V221.955H193.98ZM195.493 216.227C195.493 216.651 195.553 217.021 195.672 217.339C195.794 217.658 195.969 217.906 196.196 218.085C196.426 218.261 196.705 218.349 197.031 218.349C197.372 218.349 197.658 218.259 197.888 218.077C198.118 217.892 198.291 217.641 198.408 217.322C198.527 217.001 198.587 216.636 198.587 216.227C198.587 215.821 198.528 215.46 198.412 215.145C198.295 214.83 198.122 214.582 197.892 214.403C197.662 214.224 197.375 214.135 197.031 214.135C196.702 214.135 196.422 214.222 196.192 214.395C195.962 214.568 195.787 214.811 195.668 215.124C195.551 215.436 195.493 215.804 195.493 216.227ZM203.023 210.773V219.5H201.48V210.773H203.023ZM207.507 219.628C206.85 219.628 206.284 219.491 205.806 219.219C205.332 218.943 204.967 218.554 204.711 218.051C204.456 217.545 204.328 216.95 204.328 216.266C204.328 215.592 204.456 215.001 204.711 214.493C204.97 213.982 205.331 213.584 205.794 213.3C206.257 213.013 206.801 212.869 207.426 212.869C207.829 212.869 208.21 212.935 208.568 213.065C208.929 213.193 209.247 213.392 209.522 213.662C209.801 213.932 210.02 214.276 210.179 214.693C210.338 215.108 210.417 215.602 210.417 216.176V216.649H205.052V215.609H208.939C208.936 215.314 208.872 215.051 208.747 214.821C208.622 214.588 208.447 214.405 208.223 214.271C208.001 214.138 207.743 214.071 207.447 214.071C207.132 214.071 206.855 214.148 206.616 214.301C206.377 214.452 206.191 214.651 206.058 214.898C205.927 215.142 205.86 215.411 205.858 215.703V216.611C205.858 216.991 205.927 217.318 206.066 217.591C206.206 217.861 206.4 218.068 206.65 218.213C206.9 218.355 207.193 218.426 207.528 218.426C207.752 218.426 207.956 218.395 208.137 218.332C208.319 218.267 208.477 218.172 208.61 218.047C208.744 217.922 208.845 217.767 208.913 217.582L210.353 217.744C210.262 218.125 210.089 218.457 209.833 218.741C209.581 219.023 209.257 219.241 208.862 219.398C208.467 219.551 208.015 219.628 207.507 219.628ZM214.991 212.955V214.148H211.228V212.955H214.991ZM212.157 211.386H213.7V217.531C213.7 217.739 213.731 217.898 213.793 218.009C213.859 218.116 213.944 218.19 214.049 218.23C214.154 218.27 214.271 218.29 214.398 218.29C214.495 218.29 214.583 218.283 214.663 218.268C214.745 218.254 214.808 218.241 214.85 218.23L215.11 219.436C215.028 219.464 214.91 219.496 214.756 219.53C214.606 219.564 214.421 219.584 214.202 219.589C213.816 219.601 213.468 219.543 213.158 219.415C212.849 219.284 212.603 219.082 212.421 218.81C212.242 218.537 212.154 218.196 212.157 217.787V211.386ZM219.108 219.628C218.452 219.628 217.885 219.491 217.408 219.219C216.934 218.943 216.569 218.554 216.313 218.051C216.057 217.545 215.929 216.95 215.929 216.266C215.929 215.592 216.057 215.001 216.313 214.493C216.571 213.982 216.932 213.584 217.395 213.3C217.858 213.013 218.402 212.869 219.027 212.869C219.431 212.869 219.811 212.935 220.169 213.065C220.53 213.193 220.848 213.392 221.124 213.662C221.402 213.932 221.621 214.276 221.78 214.693C221.939 215.108 222.019 215.602 222.019 216.176V216.649H216.654V215.609H220.54C220.537 215.314 220.473 215.051 220.348 214.821C220.223 214.588 220.049 214.405 219.824 214.271C219.603 214.138 219.344 214.071 219.049 214.071C218.733 214.071 218.456 214.148 218.218 214.301C217.979 214.452 217.793 214.651 217.659 214.898C217.529 215.142 217.462 215.411 217.459 215.703V216.611C217.459 216.991 217.529 217.318 217.668 217.591C217.807 217.861 218.002 218.068 218.252 218.213C218.502 218.355 218.794 218.426 219.13 218.426C219.354 218.426 219.557 218.395 219.739 218.332C219.921 218.267 220.078 218.172 220.212 218.047C220.346 217.922 220.446 217.767 220.515 217.582L221.955 217.744C221.864 218.125 221.691 218.457 221.435 218.741C221.182 219.023 220.858 219.241 220.463 219.398C220.069 219.551 219.617 219.628 219.108 219.628ZM225.753 219.615C225.239 219.615 224.778 219.483 224.372 219.219C223.966 218.955 223.645 218.571 223.409 218.068C223.173 217.565 223.055 216.955 223.055 216.236C223.055 215.509 223.175 214.895 223.413 214.395C223.655 213.892 223.98 213.513 224.389 213.257C224.798 212.999 225.254 212.869 225.757 212.869C226.141 212.869 226.456 212.935 226.703 213.065C226.95 213.193 227.146 213.348 227.291 213.53C227.436 213.709 227.548 213.878 227.628 214.037H227.692V210.773H229.239V219.5H227.722V218.469H227.628C227.548 218.628 227.433 218.797 227.283 218.976C227.132 219.152 226.933 219.303 226.686 219.428C226.439 219.553 226.128 219.615 225.753 219.615ZM226.183 218.349C226.51 218.349 226.788 218.261 227.018 218.085C227.249 217.906 227.423 217.658 227.543 217.339C227.662 217.021 227.722 216.651 227.722 216.227C227.722 215.804 227.662 215.436 227.543 215.124C227.426 214.811 227.253 214.568 227.023 214.395C226.795 214.222 226.516 214.135 226.183 214.135C225.839 214.135 225.553 214.224 225.322 214.403C225.092 214.582 224.919 214.83 224.803 215.145C224.686 215.46 224.628 215.821 224.628 216.227C224.628 216.636 224.686 217.001 224.803 217.322C224.922 217.641 225.097 217.892 225.327 218.077C225.56 218.259 225.845 218.349 226.183 218.349Z" fill="#005E2B"/>
</g>
<defs>
<filter id="filter0_d_5101_58484" x="146.906" y="8.98828" width="267.938" height="306.027" filterUnits="userSpaceOnUse" color-interpolation-filters="sRGB">
<feFlood flood-opacity="0" result="BackgroundImageFix"/>
<feColorMatrix in="SourceAlpha" type="matrix" values="0 0 0 0 0 0 0 0 0 0 0 0 0 0 0 0 0 0 127 0" result="hardAlpha"/>
<feOffset dx="-3" dy="6"/>
<feComposite in2="hardAlpha" operator="out"/>
<feColorMatrix type="matrix" values="0 0 0 0 0 0 0 0 0 0.366699 0 0 0 0 0.168682 0 0 0 0.35 0"/>
<feBlend mode="normal" in2="BackgroundImageFix" result="effect1_dropShadow_5101_58484"/>
<feBlend mode="normal" in="SourceGraphic" in2="effect1_dropShadow_5101_58484" result="shape"/>
</filter>
<filter id="filter1_d_5101_58484" x="101.064" y="68.6641" width="93.4286" height="108.777" filterUnits="userSpaceOnUse" color-interpolation-filters="sRGB">
<feFlood flood-opacity="0" result="BackgroundImageFix"/>
<feColorMatrix in="SourceAlpha" type="matrix" values="0 0 0 0 0 0 0 0 0 0 0 0 0 0 0 0 0 0 127 0" result="hardAlpha"/>
<feOffset dx="-3.42857" dy="6.85714"/>
<feComposite in2="hardAlpha" operator="out"/>
<feColorMatrix type="matrix" values="0 0 0 0 0 0 0 0 0 0.366699 0 0 0 0 0.168682 0 0 0 0.35 0"/>
<feBlend mode="normal" in2="BackgroundImageFix" result="effect1_dropShadow_5101_58484"/>
<feBlend mode="normal" in="SourceGraphic" in2="effect1_dropShadow_5101_58484" result="shape"/>
</filter>
<clipPath id="clip0_5101_58484">
<rect width="300" height="290" rx="20" fill="white"/>
</clipPath>
</defs>
</svg>
