<svg width="223" height="28" viewBox="0 0 223 28" fill="none" xmlns="http://www.w3.org/2000/svg">
<rect x="0.5" y="4.5" width="19" height="19" rx="9.5" fill="#5F35D2" fill-opacity="0.79" stroke="white"/>
<rect x="8.5" y="2.5" width="23" height="23" rx="11.5" fill="#5F35D2" fill-opacity="0.79" stroke="white"/>
<rect x="20.5" y="0.5" width="27" height="27" rx="13.5" fill="#5F35D2" fill-opacity="0.79" stroke="white"/>
<path d="M61.204 19V9.76H64.424C64.8907 9.76 65.3153 9.79733 65.698 9.872C66.09 9.94667 66.4353 10.0587 66.734 10.208C67.042 10.3573 67.2987 10.5393 67.504 10.754C67.7187 10.9687 67.8773 11.2207 67.98 11.51C68.092 11.79 68.148 12.1027 68.148 12.448C68.148 12.7747 68.0967 13.0733 67.994 13.344C67.9007 13.6147 67.756 13.8527 67.56 14.058C67.364 14.2633 67.1213 14.4313 66.832 14.562C66.5427 14.6833 66.2067 14.7673 65.824 14.814V14.996C66.16 15.0333 66.454 15.122 66.706 15.262C66.958 15.402 67.1727 15.6073 67.35 15.878C67.5273 16.1393 67.6813 16.4893 67.812 16.928L68.4 19H67.014L66.538 17.11C66.454 16.7273 66.3093 16.4193 66.104 16.186C65.908 15.9527 65.6607 15.78 65.362 15.668C65.0633 15.556 64.7133 15.5 64.312 15.5H62.492V19H61.204ZM62.492 14.45H64.312C65.1427 14.45 65.768 14.3007 66.188 14.002C66.6173 13.7033 66.832 13.246 66.832 12.63C66.832 12.014 66.6267 11.5613 66.216 11.272C65.8147 10.9733 65.1893 10.824 64.34 10.824H62.492V14.45ZM73.2785 19.182C72.7091 19.182 72.2051 19.098 71.7665 18.93C71.3371 18.7527 70.9731 18.5007 70.6745 18.174C70.3758 17.8473 70.1518 17.46 70.0025 17.012C69.8531 16.564 69.7785 16.06 69.7785 15.5C69.7785 14.9307 69.8531 14.408 70.0025 13.932C70.1518 13.456 70.3711 13.0407 70.6605 12.686C70.9498 12.3313 71.3045 12.0607 71.7245 11.874C72.1445 11.678 72.6251 11.58 73.1665 11.58C73.6425 11.58 74.0765 11.6593 74.4685 11.818C74.8605 11.9767 75.1918 12.224 75.4625 12.56C75.7425 12.8867 75.9525 13.302 76.0925 13.806C76.2325 14.3007 76.2885 14.884 76.2605 15.556L70.5765 15.598V14.73L75.4905 14.688L75.0565 15.276C75.1031 14.688 75.0471 14.2027 74.8885 13.82C74.7298 13.4373 74.5011 13.148 74.2025 12.952C73.9131 12.756 73.5678 12.658 73.1665 12.658C72.7371 12.658 72.3591 12.77 72.0325 12.994C71.7058 13.218 71.4538 13.54 71.2765 13.96C71.1085 14.38 71.0245 14.8887 71.0245 15.486C71.0245 16.3447 71.2158 17.0027 71.5985 17.46C71.9811 17.908 72.5505 18.132 73.3065 18.132C73.5958 18.132 73.8478 18.0993 74.0625 18.034C74.2865 17.9593 74.4731 17.8613 74.6225 17.74C74.7811 17.6093 74.9071 17.46 75.0005 17.292C75.1031 17.124 75.1825 16.942 75.2385 16.746L76.3585 17.012C76.2745 17.348 76.1438 17.6513 75.9665 17.922C75.7985 18.1833 75.5838 18.4073 75.3225 18.594C75.0705 18.7807 74.7765 18.9253 74.4405 19.028C74.1045 19.1307 73.7171 19.182 73.2785 19.182ZM80.8702 19.182C80.3662 19.182 79.9182 19.126 79.5262 19.014C79.1342 18.9113 78.8075 18.762 78.5462 18.566C78.2848 18.3607 78.0842 18.118 77.9442 17.838C77.8042 17.558 77.7295 17.25 77.7202 16.914L78.7982 16.634C78.7795 16.942 78.8542 17.2127 79.0222 17.446C79.1995 17.67 79.4468 17.8427 79.7642 17.964C80.0908 18.0853 80.4828 18.146 80.9402 18.146C81.4908 18.146 81.9155 18.0527 82.2142 17.866C82.5222 17.6793 82.6762 17.4227 82.6762 17.096C82.6762 16.8347 82.5922 16.634 82.4242 16.494C82.2562 16.3447 82.0228 16.228 81.7242 16.144C81.4348 16.0507 81.0895 15.9667 80.6882 15.892C80.3522 15.8173 80.0162 15.7333 79.6802 15.64C79.3442 15.5467 79.0362 15.4253 78.7562 15.276C78.4855 15.1173 78.2662 14.912 78.0982 14.66C77.9302 14.408 77.8462 14.0953 77.8462 13.722C77.8462 13.2833 77.9628 12.9053 78.1962 12.588C78.4295 12.2707 78.7608 12.0233 79.1902 11.846C79.6195 11.6687 80.1328 11.58 80.7302 11.58C81.3275 11.58 81.8362 11.6733 82.2562 11.86C82.6762 12.0373 83.0075 12.2893 83.2502 12.616C83.4928 12.9427 83.6282 13.3253 83.6562 13.764L82.5502 14.044C82.5408 13.736 82.4568 13.4747 82.2982 13.26C82.1488 13.0453 81.9342 12.8867 81.6542 12.784C81.3742 12.672 81.0475 12.616 80.6742 12.616C80.1795 12.616 79.7875 12.7093 79.4982 12.896C79.2088 13.0827 79.0642 13.3393 79.0642 13.666C79.0642 13.9087 79.1482 14.1047 79.3162 14.254C79.4935 14.4033 79.7315 14.52 80.0302 14.604C80.3288 14.688 80.6602 14.772 81.0242 14.856C81.3975 14.9307 81.7522 15.0147 82.0882 15.108C82.4335 15.2013 82.7415 15.3227 83.0122 15.472C83.2828 15.6213 83.4975 15.822 83.6562 16.074C83.8148 16.3167 83.8942 16.6293 83.8942 17.012C83.8942 17.488 83.7682 17.8893 83.5162 18.216C83.2642 18.5333 82.9095 18.776 82.4522 18.944C82.0042 19.1027 81.4768 19.182 80.8702 19.182ZM88.7413 19.182C88.172 19.182 87.668 19.098 87.2293 18.93C86.8 18.7527 86.436 18.5007 86.1373 18.174C85.8387 17.8473 85.6147 17.46 85.4653 17.012C85.316 16.564 85.2413 16.06 85.2413 15.5C85.2413 14.9307 85.316 14.408 85.4653 13.932C85.6147 13.456 85.834 13.0407 86.1233 12.686C86.4127 12.3313 86.7673 12.0607 87.1873 11.874C87.6073 11.678 88.088 11.58 88.6293 11.58C89.1053 11.58 89.5393 11.6593 89.9313 11.818C90.3233 11.9767 90.6547 12.224 90.9253 12.56C91.2053 12.8867 91.4153 13.302 91.5553 13.806C91.6953 14.3007 91.7513 14.884 91.7233 15.556L86.0393 15.598V14.73L90.9533 14.688L90.5193 15.276C90.566 14.688 90.51 14.2027 90.3513 13.82C90.1927 13.4373 89.964 13.148 89.6653 12.952C89.376 12.756 89.0307 12.658 88.6293 12.658C88.2 12.658 87.822 12.77 87.4953 12.994C87.1687 13.218 86.9167 13.54 86.7393 13.96C86.5713 14.38 86.4873 14.8887 86.4873 15.486C86.4873 16.3447 86.6787 17.0027 87.0613 17.46C87.444 17.908 88.0133 18.132 88.7693 18.132C89.0587 18.132 89.3107 18.0993 89.5253 18.034C89.7493 17.9593 89.936 17.8613 90.0853 17.74C90.244 17.6093 90.37 17.46 90.4633 17.292C90.566 17.124 90.6453 16.942 90.7013 16.746L91.8213 17.012C91.7373 17.348 91.6067 17.6513 91.4293 17.922C91.2613 18.1833 91.0467 18.4073 90.7853 18.594C90.5333 18.7807 90.2393 18.9253 89.9033 19.028C89.5673 19.1307 89.18 19.182 88.7413 19.182ZM93.5357 19V15.08V11.762H94.6837L94.5717 14.282H94.8097C94.8937 13.7313 95.0244 13.2553 95.2017 12.854C95.379 12.4527 95.6124 12.14 95.9017 11.916C96.2004 11.692 96.569 11.58 97.0077 11.58C97.101 11.58 97.2084 11.5893 97.3297 11.608C97.451 11.6173 97.591 11.65 97.7497 11.706L97.6797 13.036C97.5397 12.98 97.3997 12.9427 97.2597 12.924C97.1197 12.896 96.9844 12.882 96.8537 12.882C96.4897 12.882 96.1724 12.9987 95.9017 13.232C95.6404 13.4653 95.421 13.7827 95.2437 14.184C95.0664 14.576 94.9217 15.0193 94.8097 15.514V19H93.5357ZM101.329 19L98.7387 11.776H100.153L102.127 17.922H102.323L104.283 11.776H105.669L103.093 19H101.329ZM110.001 19.182C109.432 19.182 108.928 19.098 108.489 18.93C108.06 18.7527 107.696 18.5007 107.397 18.174C107.098 17.8473 106.874 17.46 106.725 17.012C106.576 16.564 106.501 16.06 106.501 15.5C106.501 14.9307 106.576 14.408 106.725 13.932C106.874 13.456 107.094 13.0407 107.383 12.686C107.672 12.3313 108.027 12.0607 108.447 11.874C108.867 11.678 109.348 11.58 109.889 11.58C110.365 11.58 110.799 11.6593 111.191 11.818C111.583 11.9767 111.914 12.224 112.185 12.56C112.465 12.8867 112.675 13.302 112.815 13.806C112.955 14.3007 113.011 14.884 112.983 15.556L107.299 15.598V14.73L112.213 14.688L111.779 15.276C111.826 14.688 111.77 14.2027 111.611 13.82C111.452 13.4373 111.224 13.148 110.925 12.952C110.636 12.756 110.29 12.658 109.889 12.658C109.46 12.658 109.082 12.77 108.755 12.994C108.428 13.218 108.176 13.54 107.999 13.96C107.831 14.38 107.747 14.8887 107.747 15.486C107.747 16.3447 107.938 17.0027 108.321 17.46C108.704 17.908 109.273 18.132 110.029 18.132C110.318 18.132 110.57 18.0993 110.785 18.034C111.009 17.9593 111.196 17.8613 111.345 17.74C111.504 17.6093 111.63 17.46 111.723 17.292C111.826 17.124 111.905 16.942 111.961 16.746L113.081 17.012C112.997 17.348 112.866 17.6513 112.689 17.922C112.521 18.1833 112.306 18.4073 112.045 18.594C111.793 18.7807 111.499 18.9253 111.163 19.028C110.827 19.1307 110.44 19.182 110.001 19.182ZM120.002 19.182C119.61 19.182 119.256 19.1073 118.938 18.958C118.621 18.7993 118.369 18.5707 118.182 18.272C117.996 17.964 117.902 17.5767 117.902 17.11C117.902 16.7647 117.963 16.4613 118.084 16.2C118.215 15.9387 118.411 15.7147 118.672 15.528C118.943 15.3413 119.288 15.1873 119.708 15.066C120.128 14.9447 120.642 14.842 121.248 14.758C121.594 14.7113 121.874 14.6647 122.088 14.618C122.312 14.5713 122.476 14.4967 122.578 14.394C122.681 14.282 122.732 14.1187 122.732 13.904C122.732 13.5493 122.611 13.2507 122.368 13.008C122.126 12.7653 121.743 12.644 121.22 12.644C120.95 12.644 120.674 12.6907 120.394 12.784C120.114 12.8773 119.867 13.036 119.652 13.26C119.447 13.4747 119.316 13.778 119.26 14.17L118.084 13.778C118.159 13.442 118.28 13.1387 118.448 12.868C118.626 12.5973 118.85 12.3687 119.12 12.182C119.391 11.986 119.704 11.8367 120.058 11.734C120.422 11.6313 120.824 11.58 121.262 11.58C121.869 11.58 122.373 11.6827 122.774 11.888C123.185 12.0933 123.488 12.4107 123.684 12.84C123.89 13.26 123.992 13.8013 123.992 14.464V16.074C123.992 16.3633 123.997 16.6807 124.006 17.026C124.025 17.362 124.048 17.7027 124.076 18.048C124.104 18.384 124.132 18.7013 124.16 19H122.984C122.956 18.7013 122.928 18.4027 122.9 18.104C122.882 17.8053 122.868 17.5067 122.858 17.208H122.676C122.536 17.5533 122.35 17.8753 122.116 18.174C121.883 18.4727 121.589 18.7153 121.234 18.902C120.889 19.0887 120.478 19.182 120.002 19.182ZM120.38 18.146C120.586 18.146 120.791 18.1133 120.996 18.048C121.211 17.9827 121.421 17.8753 121.626 17.726C121.841 17.5767 122.042 17.3853 122.228 17.152C122.424 16.9187 122.597 16.6387 122.746 16.312V14.912L123.11 14.982C122.961 15.1313 122.76 15.2433 122.508 15.318C122.266 15.3927 121.995 15.4533 121.696 15.5C121.398 15.5467 121.099 15.598 120.8 15.654C120.502 15.7007 120.226 15.7753 119.974 15.878C119.732 15.9713 119.536 16.1067 119.386 16.284C119.237 16.4613 119.162 16.704 119.162 17.012C119.162 17.3853 119.274 17.67 119.498 17.866C119.722 18.0527 120.016 18.146 120.38 18.146ZM131.728 19V9.76H133.016V19H131.728ZM128.914 10.88V9.76H135.83V10.88H128.914ZM137.981 19.182C137.589 19.182 137.234 19.1073 136.917 18.958C136.6 18.7993 136.348 18.5707 136.161 18.272C135.974 17.964 135.881 17.5767 135.881 17.11C135.881 16.7647 135.942 16.4613 136.063 16.2C136.194 15.9387 136.39 15.7147 136.651 15.528C136.922 15.3413 137.267 15.1873 137.687 15.066C138.107 14.9447 138.62 14.842 139.227 14.758C139.572 14.7113 139.852 14.6647 140.067 14.618C140.291 14.5713 140.454 14.4967 140.557 14.394C140.66 14.282 140.711 14.1187 140.711 13.904C140.711 13.5493 140.59 13.2507 140.347 13.008C140.104 12.7653 139.722 12.644 139.199 12.644C138.928 12.644 138.653 12.6907 138.373 12.784C138.093 12.8773 137.846 13.036 137.631 13.26C137.426 13.4747 137.295 13.778 137.239 14.17L136.063 13.778C136.138 13.442 136.259 13.1387 136.427 12.868C136.604 12.5973 136.828 12.3687 137.099 12.182C137.37 11.986 137.682 11.8367 138.037 11.734C138.401 11.6313 138.802 11.58 139.241 11.58C139.848 11.58 140.352 11.6827 140.753 11.888C141.164 12.0933 141.467 12.4107 141.663 12.84C141.868 13.26 141.971 13.8013 141.971 14.464V16.074C141.971 16.3633 141.976 16.6807 141.985 17.026C142.004 17.362 142.027 17.7027 142.055 18.048C142.083 18.384 142.111 18.7013 142.139 19H140.963C140.935 18.7013 140.907 18.4027 140.879 18.104C140.86 17.8053 140.846 17.5067 140.837 17.208H140.655C140.515 17.5533 140.328 17.8753 140.095 18.174C139.862 18.4727 139.568 18.7153 139.213 18.902C138.868 19.0887 138.457 19.182 137.981 19.182ZM138.359 18.146C138.564 18.146 138.77 18.1133 138.975 18.048C139.19 17.9827 139.4 17.8753 139.605 17.726C139.82 17.5767 140.02 17.3853 140.207 17.152C140.403 16.9187 140.576 16.6387 140.725 16.312V14.912L141.089 14.982C140.94 15.1313 140.739 15.2433 140.487 15.318C140.244 15.3927 139.974 15.4533 139.675 15.5C139.376 15.5467 139.078 15.598 138.779 15.654C138.48 15.7007 138.205 15.7753 137.953 15.878C137.71 15.9713 137.514 16.1067 137.365 16.284C137.216 16.4613 137.141 16.704 137.141 17.012C137.141 17.3853 137.253 17.67 137.477 17.866C137.701 18.0527 137.995 18.146 138.359 18.146ZM147.86 19.182C147.393 19.182 146.992 19.0887 146.656 18.902C146.329 18.7153 146.063 18.4633 145.858 18.146C145.662 17.8193 145.513 17.4507 145.41 17.04H145.186L145.256 19H144.108V15.43V9.2H145.396V11.468C145.396 11.7107 145.382 11.9673 145.354 12.238C145.335 12.4993 145.303 12.77 145.256 13.05C145.219 13.33 145.177 13.6007 145.13 13.862H145.382C145.485 13.47 145.634 13.1013 145.83 12.756C146.026 12.4107 146.287 12.1307 146.614 11.916C146.95 11.7013 147.365 11.594 147.86 11.594C148.476 11.594 148.999 11.7573 149.428 12.084C149.867 12.4013 150.203 12.8447 150.436 13.414C150.669 13.9833 150.786 14.646 150.786 15.402C150.786 16.13 150.669 16.7787 150.436 17.348C150.212 17.9173 149.881 18.3653 149.442 18.692C149.013 19.0187 148.485 19.182 147.86 19.182ZM147.552 18.062C147.953 18.062 148.294 17.9547 148.574 17.74C148.854 17.5253 149.069 17.2173 149.218 16.816C149.377 16.4147 149.456 15.948 149.456 15.416C149.456 14.8933 149.381 14.4313 149.232 14.03C149.083 13.6193 148.868 13.2973 148.588 13.064C148.308 12.8213 147.963 12.7 147.552 12.7C147.253 12.7 146.987 12.7607 146.754 12.882C146.521 12.994 146.315 13.148 146.138 13.344C145.97 13.54 145.83 13.7547 145.718 13.988C145.606 14.2213 145.522 14.4547 145.466 14.688C145.41 14.9213 145.382 15.136 145.382 15.332V15.5C145.382 15.78 145.429 16.0693 145.522 16.368C145.625 16.6667 145.769 16.9467 145.956 17.208C146.143 17.46 146.371 17.6653 146.642 17.824C146.913 17.9827 147.216 18.062 147.552 18.062ZM152.626 19V9.2H153.9V19H152.626ZM159.206 19.182C158.637 19.182 158.133 19.098 157.694 18.93C157.265 18.7527 156.901 18.5007 156.602 18.174C156.304 17.8473 156.08 17.46 155.93 17.012C155.781 16.564 155.706 16.06 155.706 15.5C155.706 14.9307 155.781 14.408 155.93 13.932C156.08 13.456 156.299 13.0407 156.588 12.686C156.878 12.3313 157.232 12.0607 157.652 11.874C158.072 11.678 158.553 11.58 159.094 11.58C159.57 11.58 160.004 11.6593 160.396 11.818C160.788 11.9767 161.12 12.224 161.39 12.56C161.67 12.8867 161.88 13.302 162.02 13.806C162.16 14.3007 162.216 14.884 162.188 15.556L156.504 15.598V14.73L161.418 14.688L160.984 15.276C161.031 14.688 160.975 14.2027 160.816 13.82C160.658 13.4373 160.429 13.148 160.13 12.952C159.841 12.756 159.496 12.658 159.094 12.658C158.665 12.658 158.287 12.77 157.96 12.994C157.634 13.218 157.382 13.54 157.204 13.96C157.036 14.38 156.952 14.8887 156.952 15.486C156.952 16.3447 157.144 17.0027 157.526 17.46C157.909 17.908 158.478 18.132 159.234 18.132C159.524 18.132 159.776 18.0993 159.99 18.034C160.214 17.9593 160.401 17.8613 160.55 17.74C160.709 17.6093 160.835 17.46 160.928 17.292C161.031 17.124 161.11 16.942 161.166 16.746L162.286 17.012C162.202 17.348 162.072 17.6513 161.894 17.922C161.726 18.1833 161.512 18.4073 161.25 18.594C160.998 18.7807 160.704 18.9253 160.368 19.028C160.032 19.1307 159.645 19.182 159.206 19.182Z" fill="#596375"/>
<rect x="-0.5" y="0.5" width="19" height="19" rx="9.5" transform="matrix(-1 0 0 1 222 4)" fill="#5F35D2" fill-opacity="0.79" stroke="white"/>
<rect x="-0.5" y="0.5" width="23" height="23" rx="11.5" transform="matrix(-1 0 0 1 214 2)" fill="#5F35D2" fill-opacity="0.79" stroke="white"/>
<rect x="-0.5" y="0.5" width="27" height="27" rx="13.5" transform="matrix(-1 0 0 1 202 0)" fill="#5F35D2" fill-opacity="0.79" stroke="white"/>
</svg>
