<svg width="60" height="60" viewBox="0 0 60 60" fill="none" xmlns="http://www.w3.org/2000/svg">
<g clip-path="url(#clip0_6376_68840)">
<path d="M26.7862 28.1016H20.0938C19.123 28.1016 18.3359 28.8886 18.3359 29.8594C18.3359 30.8302 19.123 31.6172 20.0938 31.6172H21.6821V35.0946C21.6821 36.0654 22.4691 36.8524 23.4399 36.8524C24.4107 36.8524 25.1977 36.0654 25.1977 35.0946V31.6172H26.7862C27.757 31.6172 28.544 30.8302 28.544 29.8594C28.544 28.8886 27.757 28.1016 26.7862 28.1016Z" fill="#DECEFF"/>
<path d="M26.7838 28.1016H23.4375V36.8524C24.4083 36.8524 25.1953 36.0654 25.1953 35.0946V31.6172H26.7838C27.7546 31.6172 28.5416 30.8302 28.5416 29.8594C28.5416 28.8886 27.7546 28.1016 26.7838 28.1016Z" fill="#9971F0"/>
<path d="M55.8984 0H34.1016C31.84 0 30 1.83996 30 4.10156V55.8984C30 58.16 31.84 60 34.1016 60H55.8984C58.16 60 60 58.16 60 55.8984V4.10156C60 1.83996 58.16 0 55.8984 0Z" fill="#F0EAFF"/>
<path d="M55.8984 0H45V60H55.8984C58.16 60 60 58.16 60 55.8984V4.10156C60 1.83996 58.16 0 55.8984 0Z" fill="#DECEFF"/>
<path d="M47.1641 12.1875H42.8281C41.8573 12.1875 41.0703 11.4005 41.0703 10.4297C41.0703 9.45891 41.8573 8.67188 42.8281 8.67188H47.1641C48.1348 8.67188 48.9219 9.45891 48.9219 10.4297C48.9219 11.4005 48.1348 12.1875 47.1641 12.1875Z" fill="#DECEFF"/>
<path d="M51.6172 22.7344H38.375C37.4042 22.7344 36.6172 21.9473 36.6172 20.9766C36.6172 20.0058 37.4042 19.2188 38.375 19.2188H51.6172C52.588 19.2188 53.375 20.0058 53.375 20.9766C53.375 21.9473 52.588 22.7344 51.6172 22.7344Z" fill="#DECEFF"/>
<path d="M51.6172 29.7656H38.375C37.4042 29.7656 36.6172 28.9786 36.6172 28.0078C36.6172 27.037 37.4042 26.25 38.375 26.25H51.6172C52.588 26.25 53.375 27.037 53.375 28.0078C53.375 28.9786 52.588 29.7656 51.6172 29.7656Z" fill="#DECEFF"/>
<path d="M2.92969 54.3633C2.92969 43.0371 12.1113 33.8555 23.4375 33.8555C34.7637 33.8555 43.9453 43.0371 43.9453 54.3633H2.92969Z" fill="#F0EAFF"/>
<path d="M23.4375 33.8555V54.3633H43.9453C43.9453 43.0371 34.7637 33.8555 23.4375 33.8555Z" fill="#DECEFF"/>
<path d="M19.7558 40.6077C18.8704 40.6077 18.1087 39.9409 18.0105 39.0404C17.9053 38.0754 18.6022 37.2076 19.5673 37.1024C20.0709 37.0473 20.5841 37.0195 21.0925 37.0195C22.0633 37.0195 22.8504 37.8066 22.8504 38.7773C22.8504 39.7481 22.0633 40.5352 21.0925 40.5352C20.711 40.5352 20.326 40.556 19.9487 40.5971C19.884 40.6042 19.8195 40.6077 19.7558 40.6077Z" fill="#DECEFF"/>
<path d="M10.3347 46.9924C10.0545 46.9924 9.77033 46.9252 9.50608 46.7837C8.65037 46.3252 8.32834 45.2597 8.7869 44.404C9.81451 42.4863 11.3 40.8094 13.0828 39.5548C13.8767 38.9961 14.9732 39.1867 15.5319 39.9809C16.0906 40.7747 15.8998 41.8714 15.1059 42.43C13.7691 43.3706 12.6556 44.6274 11.8857 46.0644C11.5688 46.6558 10.9618 46.9924 10.3347 46.9924Z" fill="#DECEFF"/>
<path d="M42.1875 60H4.6875C2.09871 60 0 57.9013 0 55.3125V54.1406C0 53.4934 0.524648 52.9688 1.17188 52.9688H45.7031C46.3504 52.9688 46.875 53.4934 46.875 54.1406V55.3125C46.875 57.9013 44.7763 60 42.1875 60Z" fill="#DECEFF"/>
<path d="M45.7031 52.9688H23.4375V60H42.1875C44.7763 60 46.875 57.9013 46.875 55.3125V54.1406C46.875 53.4934 46.3504 52.9688 45.7031 52.9688Z" fill="#9971F0"/>
<path d="M48.9258 10.4297C48.9258 9.45891 48.1388 8.67188 47.168 8.67188H45V12.1875H47.168C48.1388 12.1875 48.9258 11.4005 48.9258 10.4297Z" fill="#9971F0"/>
<path d="M53.3789 20.9766C53.3789 20.0058 52.5919 19.2188 51.6211 19.2188H45V22.7344H51.6211C52.5919 22.7344 53.3789 21.9473 53.3789 20.9766Z" fill="#9971F0"/>
<path d="M51.6211 26.25H45V29.7656H51.6211C52.5919 29.7656 53.3789 28.9786 53.3789 28.0078C53.3789 27.037 52.5919 26.25 51.6211 26.25Z" fill="#9971F0"/>
</g>
<defs>
<clipPath id="clip0_6376_68840">
<rect width="60" height="60" fill="white"/>
</clipPath>
</defs>
</svg>
