<svg width="25" height="25" viewBox="0 0 25 25" fill="none" xmlns="http://www.w3.org/2000/svg">
<path d="M21.47 1.5H18.53C17.26 1.5 16.5 2.26 16.5 3.53V6.47C16.5 7.74 17.26 8.5 18.53 8.5H21.47C22.74 8.5 23.5 7.74 23.5 6.47V3.53C23.5 2.26 22.74 1.5 21.47 1.5ZM21.69 4.81C21.57 4.93 21.41 4.99 21.25 4.99C21.09 4.99 20.93 4.93 20.81 4.81L20.63 4.63V6.87C20.63 7.22 20.35 7.5 20 7.5C19.65 7.5 19.37 7.22 19.37 6.87V4.63L19.19 4.81C18.95 5.05 18.55 5.05 18.31 4.81C18.07 4.57 18.07 4.17 18.31 3.93L19.56 2.68C19.61 2.63 19.68 2.59 19.75 2.56C19.77 2.55 19.79 2.55 19.81 2.54C19.86 2.52 19.91 2.51 19.97 2.51C19.99 2.51 20.01 2.51 20.03 2.51C20.1 2.51 20.16 2.52 20.23 2.55C20.24 2.55 20.24 2.55 20.25 2.55C20.32 2.58 20.38 2.62 20.43 2.67C20.44 2.68 20.44 2.68 20.45 2.68L21.7 3.93C21.94 4.17 21.94 4.57 21.69 4.81Z" fill="#5F35D2"/>
<path d="M9.50109 10.8811C10.8155 10.8811 11.8811 9.81553 11.8811 8.50109C11.8811 7.18666 10.8155 6.12109 9.50109 6.12109C8.18666 6.12109 7.12109 7.18666 7.12109 8.50109C7.12109 9.81553 8.18666 10.8811 9.50109 10.8811Z" fill="#5F35D2"/>
<path d="M21.47 8.5H21V13.11L20.87 13C20.09 12.33 18.83 12.33 18.05 13L13.89 16.57C13.11 17.24 11.85 17.24 11.07 16.57L10.73 16.29C10.02 15.67 8.89 15.61 8.09 16.15L4.35 18.66C4.13 18.1 4 17.45 4 16.69V8.31C4 5.49 5.49 4 8.31 4H16.5V3.53C16.5 3.13 16.57 2.79 16.73 2.5H8.31C4.67 2.5 2.5 4.67 2.5 8.31V16.69C2.5 17.78 2.69 18.73 3.06 19.53C3.92 21.43 5.76 22.5 8.31 22.5H16.69C20.33 22.5 22.5 20.33 22.5 16.69V8.27C22.21 8.43 21.87 8.5 21.47 8.5Z" fill="#5F35D2"/>
</svg>
